<?xml version="1.0" encoding="UTF-8" standalone="no"?>
<!DOCTYPE svg PUBLIC "-//W3C//DTD SVG 1.1//EN" "http://www.w3.org/Graphics/SVG/1.1/DTD/svg11.dtd">
<svg version="1.1" xmlns="http://www.w3.org/2000/svg" xmlns:xlink="http://www.w3.org/1999/xlink" preserveAspectRatio="xMidYMid meet" viewBox="0 0 30 30" width="30" height="30"><defs><path d="M324.94 11.43L337.79 11.43L337.79 290.15L324.94 290.15L324.94 11.43Z" id="b1pxbcaIR"></path><path d="M28.1 0C29.15 0 30 0.85 30 1.9C30 2.29 30 1.52 30 1.9C30 2.96 29.15 3.81 28.1 3.81C22.48 3.81 7.52 3.81 1.91 3.81C0.85 3.81 0 2.96 0 1.9C0 1.52 0 2.29 0 1.9C0 0.85 0.85 0 1.91 0C7.52 0 22.48 0 28.1 0Z" id="a2b9QLzPvN"></path><path d="M28.1 13.1C29.15 13.1 30 13.95 30 15C30 15.38 30 14.62 30 15C30 16.05 29.15 16.91 28.1 16.91C22.48 16.91 7.52 16.91 1.9 16.91C0.85 16.91 0 16.05 0 15C0 14.62 0 15.38 0 15C0 13.95 0.85 13.1 1.9 13.1C7.52 13.1 22.48 13.1 28.1 13.1Z" id="c7V1kaek"></path><path d="M14.73 26.2C15.78 26.2 16.63 27.05 16.63 28.1C16.63 28.48 16.63 27.72 16.63 28.1C16.63 29.15 15.78 30 14.73 30C11.79 30 4.84 30 1.9 30C0.85 30 0 29.15 0 28.1C0 27.72 0 28.48 0 28.1C0 27.05 0.85 26.2 1.9 26.2C4.84 26.2 11.79 26.2 14.73 26.2Z" id="fa5pELsOXr"></path></defs><g><g><g><use xlink:href="#b1pxbcaIR" opacity="1" fill="#ffffff" fill-opacity="1"></use></g><g><use xlink:href="#a2b9QLzPvN" opacity="1" fill="#bfc5d1" fill-opacity="1"></use></g><g><use xlink:href="#c7V1kaek" opacity="1" fill="#bfc5d1" fill-opacity="1"></use></g><g><use xlink:href="#fa5pELsOXr" opacity="1" fill="#bfc5d1" fill-opacity="1"></use></g></g></g></svg>