<?xml version="1.0" encoding="UTF-8" standalone="no"?>
<!DOCTYPE svg PUBLIC "-//W3C//DTD SVG 1.1//EN" "http://www.w3.org/Graphics/SVG/1.1/DTD/svg11.dtd">
<svg version="1.1" xmlns="http://www.w3.org/2000/svg" xmlns:xlink="http://www.w3.org/1999/xlink" preserveAspectRatio="xMidYMid meet" viewBox="0 0 50 50" width="50" height="50"><defs><path d="M31.27 12.76C34.33 12.76 36.82 15.24 36.82 18.31C36.82 22.1 36.82 27.9 36.82 31.69C36.82 34.76 34.33 37.24 31.27 37.24C26.63 37.24 18.27 37.24 13.63 37.24C10.56 37.24 8.07 34.76 8.07 31.69C8.07 27.9 8.07 22.1 8.07 18.31C8.07 15.24 10.56 12.76 13.63 12.76C18.27 12.76 26.63 12.76 31.27 12.76Z" id="b70seDV4wi"></path><path d="M41.34 15.22L41.93 35.04L31.72 25.26L41.34 15.22Z" id="c1yEOrpHm"></path></defs><g><g><g><use xlink:href="#b70seDV4wi" opacity="1" fill="#ff608f" fill-opacity="1"></use></g><g><use xlink:href="#c1yEOrpHm" opacity="1" fill="#ff608f" fill-opacity="1"></use></g></g></g></svg>