<?xml version="1.0" encoding="UTF-8" standalone="no"?>
<!DOCTYPE svg PUBLIC "-//W3C//DTD SVG 1.1//EN" "http://www.w3.org/Graphics/SVG/1.1/DTD/svg11.dtd">
<svg version="1.1" xmlns="http://www.w3.org/2000/svg" xmlns:xlink="http://www.w3.org/1999/xlink" preserveAspectRatio="xMidYMid meet" viewBox="0 0 67.5 45" width="67.5" height="45"><defs><path d="M49.84 12.72C51.41 12.72 52.67 13.99 52.67 15.55C52.67 20.01 52.67 30.53 52.67 34.99C52.67 36.55 51.41 37.82 49.84 37.82C42.84 37.82 24.66 37.82 17.66 37.82C16.09 37.82 14.83 36.55 14.83 34.99C14.83 30.53 14.83 20.01 14.83 15.55C14.83 13.99 16.09 12.72 17.66 12.72C24.66 12.72 42.84 12.72 49.84 12.72Z" id="b1H6sCtUEb"></path><path d="M40.22 25.27C40.22 29.59 37.32 33.09 33.75 33.09C30.18 33.09 27.28 29.59 27.28 25.27C27.28 20.95 30.18 17.45 33.75 17.45C37.32 17.45 40.22 20.95 40.22 25.27Z" id="a1OTLO2uAW"></path><path d="M37.38 7.18C38.95 7.18 40.22 8.45 40.22 10.01C40.22 11.14 40.22 11.69 40.22 12.82C40.22 14.39 38.95 15.65 37.38 15.65C35.36 15.65 32.14 15.65 30.12 15.65C28.55 15.65 27.28 14.39 27.28 12.82C27.28 11.69 27.28 11.14 27.28 10.01C27.28 8.45 28.55 7.18 30.12 7.18C32.14 7.18 35.36 7.18 37.38 7.18Z" id="cFl084Jyd"></path></defs><g><g><g><use xlink:href="#b1H6sCtUEb" opacity="1" fill="#3ab1ef" fill-opacity="1"></use></g><g><use xlink:href="#a1OTLO2uAW" opacity="1" fill="#f5f5f5" fill-opacity="1"></use></g><g><use xlink:href="#cFl084Jyd" opacity="1" fill="#00b6e4" fill-opacity="1"></use></g></g></g></svg>