<?xml version="1.0" encoding="UTF-8" standalone="no"?>
<!DOCTYPE svg PUBLIC "-//W3C//DTD SVG 1.1//EN" "http://www.w3.org/Graphics/SVG/1.1/DTD/svg11.dtd">
<svg version="1.1" xmlns="http://www.w3.org/2000/svg" xmlns:xlink="http://www.w3.org/1999/xlink" preserveAspectRatio="xMidYMid meet" viewBox="0 0 1200 800" width="1200" height="800"><defs><path d="M660.55 313.13C670.91 313.13 679.3 321.52 679.3 331.88C679.3 355.88 679.3 409.15 679.3 433.16C679.3 443.51 670.91 451.91 660.55 451.91C614.2 451.91 493.88 451.91 447.53 451.91C437.17 451.91 428.78 443.51 428.78 433.16C428.78 409.15 428.78 355.88 428.78 331.88C428.78 321.52 437.17 313.13 447.53 313.13C493.88 313.13 614.2 313.13 660.55 313.13Z" id="a4DJLOLgxm"></path><path d="M596.85 382.52C596.85 406.39 577.67 425.77 554.04 425.77C530.42 425.77 511.24 406.39 511.24 382.52C511.24 358.64 530.42 339.26 554.04 339.26C577.67 339.26 596.85 358.64 596.85 382.52Z" id="a1W3i0oXaM"></path><path d="M578.1 282.49C588.45 282.49 596.85 290.88 596.85 301.24C596.85 306.86 596.85 304.98 596.85 310.6C596.85 320.95 588.45 329.35 578.1 329.35C564.72 329.35 543.36 329.35 529.99 329.35C519.63 329.35 511.24 320.95 511.24 310.6C511.24 304.98 511.24 306.86 511.24 301.24C511.24 290.88 519.63 282.49 529.99 282.49C543.36 282.49 564.72 282.49 578.1 282.49Z" id="b116RzBmmM"></path></defs><g><g><g><use xlink:href="#a4DJLOLgxm" opacity="1" fill="#3ab1ef" fill-opacity="1"></use></g><g><use xlink:href="#a1W3i0oXaM" opacity="1" fill="#f5f5f5" fill-opacity="1"></use></g><g><use xlink:href="#b116RzBmmM" opacity="1" fill="#00b6e4" fill-opacity="1"></use></g></g></g></svg>